<?xml version="1.0" encoding="iso-8859-1"?>
<!-- Generator: Adobe Illustrator 19.0.0, SVG Export Plug-In . SVG Version: 6.00 Build 0)  -->
<svg xmlns="http://www.w3.org/2000/svg" xmlns:xlink="http://www.w3.org/1999/xlink" version="1.1" id="Capa_1" x="0px" y="0px" viewBox="0 0 463 463" style="enable-background:new 0 0 463 463;" xml:space="preserve" width="512px" height="512px">
<g>
	<path d="M455.5,352H455v-192.06c0-2.274-1.014-4.312-2.613-5.688c-5.258-4.692-11.009-8.857-17.093-12.379   C419.621,132.798,401.71,128,383.5,128c-30.364,0-57.138,11.978-77.445,34.644L247.5,220.919l-65.539-65.225   c-0.029-0.029-0.06-0.052-0.09-0.081c-0.032-0.031-0.059-0.064-0.092-0.094C162.604,137.774,137.645,128,111.5,128   C54.43,128,8,174.43,8,231.5V352H7.5c-4.142,0-7.5,3.358-7.5,7.5s3.358,7.5,7.5,7.5h448c4.142,0,7.5-3.358,7.5-7.5   S459.643,352,455.5,352z M440,163.38V352h-33V146.175c7.254,1.991,14.245,4.897,20.778,8.68   C432.072,157.341,436.171,160.201,440,163.38z M392.005,143.412c0,0.03-0.004,0.058-0.004,0.088V352h-33V146.283   c7.779-2.17,15.973-3.282,24.5-3.282C386.348,143,389.185,143.141,392.005,143.412z M317.096,172.8   c7.898-8.85,16.946-15.798,26.904-20.756V352h-33V178.885l5.791-5.763C316.896,173.018,316.998,172.911,317.096,172.8z    M104,334.727V352H71v-25.257C81.261,331.124,92.367,333.89,104,334.727z M119,334.729c11.452-0.824,22.584-3.532,33-7.961V352h-33   V334.729z M167,318.872c5.211-3.317,10.156-7.114,14.763-11.375c0.067-0.062,0.133-0.125,0.198-0.19L200,289.354V352h-33V318.872z    M215,274.426l33-32.842V352h-33V274.426z M263,226.656l33-32.842V352h-33V226.656z M56,162.621V271.5c0,4.142,3.358,7.5,7.5,7.5   s7.5-3.358,7.5-7.5V152.826c10.042-5.19,21.2-8.511,33.01-9.506c-0.001,0.06-0.009,0.119-0.009,0.179v152   c0,4.142,3.358,7.5,7.5,7.5s7.5-3.358,7.5-7.5v-152c0-0.057-0.007-0.113-0.009-0.169c11.6,0.977,22.793,4.211,33.019,9.482   c-0.002,0.071-0.011,0.14-0.011,0.211v120.809c0,4.142,3.358,7.5,7.5,7.5s7.5-3.358,7.5-7.5V162.592   c1.541,1.243,3.058,2.524,4.523,3.877L200,194.809v31.203c0,4.142,3.358,7.5,7.5,7.5s7.5-3.358,7.5-7.5v-16.275l21.868,21.763   l-65.389,65.075C155.099,311.682,133.803,320,111.5,320C62.701,320,23,280.299,23,231.5C23,203.7,35.889,178.858,56,162.621z    M23,285.119c8.278,13.613,19.609,25.172,33.033,33.727C56.014,319.062,56,319.28,56,319.5V352H23V285.119z" fill="#FFFFFF"/>
	<path d="M329.188,122.906c1.063,0,2.143-0.228,3.169-0.707c15.909-7.432,33.116-11.2,51.144-11.2   c13.397,0,26.561,2.193,39.125,6.518c3.916,1.35,8.185-0.733,9.533-4.65c1.349-3.917-0.733-8.185-4.65-9.533   C413.37,98.468,398.563,96,383.5,96c-20.237,0-39.581,4.242-57.492,12.609c-3.753,1.753-5.374,6.217-3.621,9.97   C323.661,121.305,326.365,122.906,329.188,122.906z" fill="#FFFFFF"/>
	<path d="M288.299,153.25c2.044,0,4.081-0.831,5.561-2.465c4.248-4.689,8.847-9.059,13.671-12.987   c3.211-2.616,3.695-7.34,1.079-10.552c-2.615-3.212-7.34-3.695-10.552-1.079c-5.409,4.405-10.562,9.3-15.315,14.549   c-2.781,3.07-2.546,7.813,0.524,10.593C284.702,152.609,286.503,153.25,288.299,153.25z" fill="#FFFFFF"/>
</g>
<g>
</g>
<g>
</g>
<g>
</g>
<g>
</g>
<g>
</g>
<g>
</g>
<g>
</g>
<g>
</g>
<g>
</g>
<g>
</g>
<g>
</g>
<g>
</g>
<g>
</g>
<g>
</g>
<g>
</g>
</svg>
